<svg xmlns="http://www.w3.org/2000/svg" width="121" height="48" fill="none"><path fill="url(#a)" d="M34.196 39V9.91h18.04v3.777h-13.65v8.864h12.357v3.764H38.585V39zm27.768.483q-2.075 0-3.75-.767-1.676-.78-2.656-2.259-.966-1.477-.966-3.622 0-1.846.71-3.04a5.24 5.24 0 0 1 1.918-1.889 10 10 0 0 1 2.699-1.05 27 27 0 0 1 3.04-.54l3.181-.37q1.221-.156 1.776-.497t.554-1.108v-.1q0-1.86-1.052-2.883-1.036-1.023-3.096-1.023-2.145 0-3.38.952-1.223.938-1.691 2.088l-3.992-.91q.71-1.988 2.074-3.21a8.4 8.4 0 0 1 3.168-1.79 12.4 12.4 0 0 1 3.764-.567 13.3 13.3 0 0 1 2.77.312 8.1 8.1 0 0 1 2.756 1.108q1.292.81 2.116 2.316.824 1.492.824 3.877V39h-4.148v-2.983h-.17q-.412.825-1.236 1.62t-2.117 1.32q-1.291.526-3.096.526m.923-3.41q1.761 0 3.012-.695 1.264-.696 1.917-1.818a4.7 4.7 0 0 0 .668-2.43v-2.812q-.228.228-.88.426-.64.184-1.464.327-.824.128-1.605.241-.78.1-1.307.171-1.236.157-2.258.526-1.009.368-1.62 1.065-.596.681-.596 1.818 0 1.577 1.165 2.386 1.165.796 2.968.796Zm22.069 3.353q-2.643 0-4.716-1.35-2.06-1.362-3.239-3.877-1.165-2.529-1.165-6.065t1.18-6.052q1.193-2.514 3.266-3.849t4.702-1.335q2.031 0 3.267.681 1.25.668 1.932 1.563.696.895 1.08 1.577h.255V9.909h4.247V39h-4.147v-3.395h-.356q-.383.696-1.108 1.591-.71.895-1.96 1.563t-3.239.667Zm.937-3.622q1.833 0 3.097-.966 1.278-.98 1.931-2.713.668-1.733.668-4.034 0-2.273-.653-3.977-.654-1.705-1.918-2.657-1.264-.951-3.125-.951-1.918 0-3.196.994t-1.932 2.713q-.639 1.718-.639 3.878 0 2.187.653 3.935.654 1.746 1.932 2.77 1.293 1.008 3.182 1.008m23.737 3.636q-3.224 0-5.554-1.377-2.315-1.392-3.579-3.907-1.25-2.528-1.25-5.923 0-3.352 1.25-5.91 1.264-2.556 3.523-3.99 2.273-1.435 5.312-1.435 1.846 0 3.58.61a8.7 8.7 0 0 1 3.11 1.918q1.378 1.307 2.174 3.395.795 2.074.795 5.043v1.505h-17.344v-3.181h13.182q0-1.676-.682-2.97a5.15 5.15 0 0 0-1.917-2.059q-1.222-.753-2.869-.753-1.79 0-3.125.88a5.9 5.9 0 0 0-2.046 2.274 6.6 6.6 0 0 0-.71 3.025v2.486q0 2.187.767 3.722.781 1.534 2.173 2.343 1.392.795 3.253.796 1.207 0 2.202-.341a4.7 4.7 0 0 0 1.718-1.051 4.56 4.56 0 0 0 1.108-1.719l4.02.724a7.3 7.3 0 0 1-1.733 3.111q-1.236 1.321-3.11 2.06-1.862.724-4.248.724"/><path fill="url(#b)" d="M0 12.778v26c0 1.589 1.3 2.889 2.889 2.889h17.333v-2.89H2.89v-26zM23.111 7H8.667a2.897 2.897 0 0 0-2.89 2.889V33c0 1.589 1.3 2.889 2.89 2.889H23.11c1.59 0 2.89-1.3 2.89-2.889V9.889C26 8.3 24.7 7 23.111 7M18.49 25.778q-.867 0-1.733-.434l1.3 3.323h-4.334l1.3-3.323q-.866.435-1.733.434c-1.733 0-3.178-1.445-3.178-3.178 0-2.167 2.022-3.9 4.911-6.644l.867-.723.867.723c2.888 2.744 4.91 4.477 4.91 6.644 0 1.878-1.444 3.178-3.177 3.178"/><defs><linearGradient id="a" x1="78.75" x2="78.75" y1="48" y2="24" gradientUnits="userSpaceOnUse"><stop/><stop offset="1" stop-color="#C3C1C1"/></linearGradient><linearGradient id="b" x1="11.917" x2="11.917" y1="47" y2="18.5" gradientUnits="userSpaceOnUse"><stop/><stop offset="1" stop-color="#C4C1C1"/></linearGradient></defs></svg>