<svg xmlns="http://www.w3.org/2000/svg" width="69" height="24" fill="none"><path stroke="#FAB800" stroke-linecap="round" stroke-linejoin="round" stroke-width="1.627" d="M23.129 12.253C23.129 6.038 18.09 1 11.876 1 6.832 1 2.563 4.319 1.133 8.892c-.091.293-.137.44-.133.623.004.149.05.333.115.466.081.164.207.29.457.54l12.036 12.036c.25.25.376.376.54.457.134.066.318.111.467.114.183.005.33-.04.622-.133 4.573-1.429 7.892-5.698 7.892-10.742"/><path stroke="#FAB800" stroke-linecap="round" stroke-linejoin="round" stroke-width="1.627" d="M2.492 9.602q.401-.028.81-.028c6.215 0 11.253 5.038 11.253 11.253q0 .408-.029.81c-.033.467-.05.7-.186.845a.6.6 0 0 1-.46.172c-.197-.02-.377-.2-.736-.559l-11.11-11.11c-.36-.36-.54-.54-.56-.737a.6.6 0 0 1 .173-.46c.144-.136.378-.152.845-.186"/><mask id="a" width="41" height="13" x="26.058" y="6.46" fill="#000" maskUnits="userSpaceOnUse"><path fill="#fff" d="M26.058 6.46h41v13h-41z"/><path d="M30.775 7.604q1.734 0 3.03.672a4.63 4.63 0 0 1 2.015 1.905q.72 1.234.719 2.89c-.001 1.656-.24 2.062-.719 2.874q-.702 1.219-2.015 1.875-1.296.64-3.03.64h-3.546V7.604zm0 9.404q1.905 0 2.921-1.031 1.015-1.032 1.015-2.906 0-1.89-1.015-2.952t-2.921-1.062H29.01v7.95h1.765Zm15.323-7.155v8.607h-1.78v-1.015a2.94 2.94 0 0 1-1.11.843 3.5 3.5 0 0 1-1.437.297q-1.015 0-1.827-.422a3.1 3.1 0 0 1-1.265-1.25q-.453-.827-.453-1.999v-5.06h1.765v4.795q0 1.156.578 1.78.577.61 1.577.61t1.578-.61q.594-.624.594-1.78V9.853zm6.692-.14q1.016 0 1.812.422.813.42 1.265 1.25.453.827.453 1.999v5.076h-1.765v-4.81q0-1.157-.578-1.766-.577-.625-1.577-.625t-1.593.625q-.579.61-.579 1.765v4.811h-1.78V9.853h1.78v.985q.438-.532 1.11-.828a3.6 3.6 0 0 1 1.452-.297m13.69 4.233q0 .484-.062.875H59.84q.08 1.03.766 1.655.687.625 1.687.625 1.437 0 2.03-1.202h1.922a3.9 3.9 0 0 1-1.422 1.952q-1.015.75-2.53.75-1.234 0-2.218-.547a4.1 4.1 0 0 1-1.531-1.562q-.546-1.015-.547-2.343c-.001-1.328.177-1.661.531-2.327a3.84 3.84 0 0 1 1.515-1.563q.985-.546 2.25-.546 1.218 0 2.171.53a3.74 3.74 0 0 1 1.484 1.5q.531.954.531 2.203Zm-1.859-.562q-.015-.985-.703-1.578t-1.702-.594a2.27 2.27 0 0 0-1.578.594q-.656.577-.78 1.578z"/></mask><path fill="#fff" d="M30.775 7.604q1.734 0 3.03.672a4.63 4.63 0 0 1 2.015 1.905q.72 1.234.719 2.89c-.001 1.656-.24 2.062-.719 2.874q-.702 1.219-2.015 1.875-1.296.64-3.03.64h-3.546V7.604zm0 9.404q1.905 0 2.921-1.031 1.015-1.032 1.015-2.906 0-1.89-1.015-2.952t-2.921-1.062H29.01v7.95h1.765Zm15.323-7.155v8.607h-1.78v-1.015a2.94 2.94 0 0 1-1.11.843 3.5 3.5 0 0 1-1.437.297q-1.015 0-1.827-.422a3.1 3.1 0 0 1-1.265-1.25q-.453-.827-.453-1.999v-5.06h1.765v4.795q0 1.156.578 1.78.577.61 1.577.61t1.578-.61q.594-.624.594-1.78V9.853zm6.692-.14q1.016 0 1.812.422.813.42 1.265 1.25.453.827.453 1.999v5.076h-1.765v-4.81q0-1.157-.578-1.766-.577-.625-1.577-.625t-1.593.625q-.579.61-.579 1.765v4.811h-1.78V9.853h1.78v.985q.438-.532 1.11-.828a3.6 3.6 0 0 1 1.452-.297m13.69 4.233q0 .484-.062.875H59.84q.08 1.03.766 1.655.687.625 1.687.625 1.437 0 2.03-1.202h1.922a3.9 3.9 0 0 1-1.422 1.952q-1.015.75-2.53.75-1.234 0-2.218-.547a4.1 4.1 0 0 1-1.531-1.562q-.546-1.015-.547-2.343c-.001-1.328.177-1.661.531-2.327a3.84 3.84 0 0 1 1.515-1.563q.985-.546 2.25-.546 1.218 0 2.171.53a3.74 3.74 0 0 1 1.484 1.5q.531.954.531 2.203Zm-1.859-.562q-.015-.985-.703-1.578t-1.702-.594a2.27 2.27 0 0 0-1.578.594q-.656.577-.78 1.578z"/><path fill="#000" d="m33.805 8.276-.15.289.005.002zm2.015 1.905-.283.16.002.004zm0 5.764-.28-.165-.002.003zm-2.015 1.875.144.291h.002zm-6.576.64h-.325v.326h.325zm0-10.856V7.28h-.325v.325h.325Zm6.467 8.373-.232-.229zm-4.686-6.92V8.73h-.326v.326zm0 7.95h-.326v.326h.326v-.325Zm1.765-9.078c1.114 0 2.07.216 2.88.636l.3-.578c-.919-.476-1.982-.708-3.18-.708zm2.885.638c.818.409 1.44.999 1.877 1.774l.567-.32a4.96 4.96 0 0 0-2.153-2.036zm1.88 1.778c.445.766.673 1.67.673 2.726h.651c0-1.152-.25-2.173-.762-3.053zm.673 2.726c0 1.056-.228 1.955-.673 2.709l.56.33c.514-.87.764-1.887.764-3.039h-.65Zm-.675 2.712c-.435.754-1.058 1.336-1.878 1.746l.29.582q1.397-.698 2.152-2.003l-.563-.325Zm-1.877 1.745c-.811.4-1.77.607-2.886.607v.65c1.196 0 2.257-.22 3.174-.674zm-2.886.607h-3.546v.65h3.546zm-3.22.325V7.604h-.651V18.46zm-.326-10.53h3.546v-.651h-3.546zm3.546 9.403c1.329 0 2.397-.36 3.153-1.128l-.464-.457c-.598.608-1.477.934-2.689.934zm3.153-1.128c.753-.765 1.109-1.825 1.109-3.134h-.651c0 1.19-.321 2.067-.922 2.677zm1.109-3.134c0-1.319-.356-2.392-1.106-3.177l-.47.45c.604.632.925 1.526.925 2.727zM33.93 9.894c-.755-.79-1.825-1.163-3.156-1.163v.651c1.21 0 2.087.336 2.686.962zm-3.156-1.163H29.01v.651h1.765v-.65Zm-2.09.326v7.95h.65v-7.95zm.325 8.276h1.765v-.65H29.01v.65Zm17.088-7.48h.326v-.325h-.326zm0 8.607v.326h.326v-.326zm-1.78 0h-.326v.326h.326zm0-1.015h.325v-.933l-.58.73zm-1.11.843.132.298.003-.001zm-3.264-.125-.152.288.002.001zm-1.265-1.25-.286.157.002.004zm-.453-7.06v-.325H37.9v.325zm1.765 0h.325v-.325h-.325zm.578 6.577-.24.22.004.004zm3.155 0-.236-.225zm.594-6.577v-.325h-.326v.325zm1.455 0v8.607h.65V9.853zm.325 8.282h-1.78v.65h1.78zm-1.455.325v-1.015h-.65v1.015zm-.58-1.218c-.246.31-.573.56-.99.75l.27.593c.5-.227.913-.539 1.23-.938zm-.986.749a3.2 3.2 0 0 1-1.306.269v.65a3.8 3.8 0 0 0 1.569-.324zm-1.306.269q-.944-.001-1.677-.385l-.3.577q.891.46 1.977.459zm-1.675-.384a2.8 2.8 0 0 1-1.134-1.123l-.567.321a3.43 3.43 0 0 0 1.397 1.377zm-1.132-1.118c-.27-.494-.413-1.104-.413-1.844h-.65c0 .823.158 1.546.492 2.156zm-.413-1.844v-5.06h-.65v5.06zm-.325-4.735h1.765v-.651h-1.765v.65Zm1.44-.326v4.796h.65V9.853zm0 4.796c0 .823.206 1.506.664 2.002l.478-.442c-.313-.338-.492-.842-.492-1.56zm.667 2.005c.458.483 1.076.71 1.813.71v-.65c-.595 0-1.029-.18-1.341-.508zm1.813.71c.738 0 1.356-.227 1.814-.71l-.472-.448c-.312.329-.746.507-1.342.507zm1.814-.71c.47-.496.683-1.18.683-2.005h-.65c0 .716-.184 1.219-.505 1.556zm.683-2.005V9.853h-.65v4.796zm-.325-4.47h1.78v-.651h-1.78v.65Zm10.284-.044-.152.287.002.001zm1.265 1.25-.285.155.285-.156Zm.453 7.075v.326h.326v-.326zm-1.765 0h-.325v.326h.325zm-.578-6.576-.238.221.002.003zm-3.17 0-.236-.224zm-.579 6.576v.326h.326v-.326zm-1.78 0h-.326v.326h.326zm0-8.607v-.325h-.326v.325zm1.78 0h.326v-.325h-.326zm0 .985h-.325v.907l.577-.7zm1.11-.828-.13-.3-.002.002zm1.452.028q.943.002 1.66.384l.304-.575q-.876-.462-1.964-.46zm1.662.385q.723.373 1.13 1.117l.57-.312a3.3 3.3 0 0 0-1.4-1.382zm1.13 1.117c.27.494.413 1.104.413 1.844h.65c0-.823-.158-1.546-.492-2.156zm.413 1.844v5.076h.65v-5.076zm.325 4.75h-1.765v.652h1.765zm-1.44.326v-4.81h-.65v4.81zm0-4.81c0-.823-.205-1.504-.666-1.99l-.473.448c.31.326.489.822.489 1.541h.65Zm-.664-1.987c-.457-.495-1.076-.73-1.816-.73v.652c.593 0 1.026.182 1.339.52zm-1.816-.73c-.74 0-1.362.235-1.83.727l.472.448c.325-.341.765-.523 1.358-.523zm-1.83.727c-.461.486-.667 1.167-.667 1.99h.65c0-.72.18-1.216.49-1.542zm-.667 1.99v4.81h.65v-4.81zm.325 4.485h-1.78v.65h1.78zm-1.455.325V9.853h-.65v8.607zm-.325-8.281h1.78v-.651h-1.78v.65Zm1.455-.326v.985h.65v-.985zm.577 1.191q.384-.468.99-.737l-.264-.595a3.3 3.3 0 0 0-1.229.919zm.987-.736a3.3 3.3 0 0 1 1.323-.27v-.65q-.831 0-1.581.323zm14.95 4.513v.325h.278l.044-.274-.321-.051Zm-6.575 0v-.326h-.352l.027.35zm.765 1.655-.219.241zm3.718-.577v-.326h-.203l-.09.181zm1.92 0 .31.101.14-.427h-.45v.325Zm-1.42 1.952.193.262zm-4.75.203-.163.282.006.003.158-.285Zm-1.53-1.562-.287.154.003.006zm-.016-4.67-.286-.155-.001.002zm1.515-1.563-.157-.284-.002.001.16.283Zm4.421-.015.159-.284zm1.484 1.5-.285.156v.002l.285-.159Zm-1.328 1.64v.325h.33l-.004-.33zm-.703-1.578.213-.246zm-3.28 0 .215.244.003-.003zm-.78 1.578-.324-.04-.045.365h.368zm6.297.562q0 .464-.059.823l.643.103q.067-.421.067-.926zm.263.55H59.84v.65h6.577zm-6.901.35c.058.76.344 1.392.871 1.871l.438-.481c-.39-.354-.614-.825-.66-1.44zm.871 1.871c.523.476 1.165.71 1.906.71v-.651c-.592 0-1.075-.183-1.468-.54zm1.906.71c.525 0 .993-.11 1.392-.346.4-.237.708-.589.93-1.038l-.583-.288c-.174.352-.402.601-.679.765-.278.165-.627.256-1.06.256v.65Zm2.03-1.203h1.922v-.651h-1.921v.65Zm1.613-.427a3.58 3.58 0 0 1-1.307 1.793l.388.522A4.23 4.23 0 0 0 66.555 16l-.618-.203Zm-1.306 1.792c-.61.451-1.382.686-2.337.686v.651c1.065 0 1.98-.264 2.724-.813zm-2.337.686c-.773 0-1.457-.17-2.06-.505l-.316.569q1.065.588 2.376.587zm-2.055-.502a3.76 3.76 0 0 1-1.41-1.44l-.568.319a4.4 4.4 0 0 0 1.651 1.683zm-1.407-1.435c-.336-.623-.508-1.35-.508-2.189h-.651c0 .93.192 1.766.585 2.497l.573-.308Zm-.508-2.189c0-.841.168-1.563.493-2.175l-.575-.305c-.383.72-.57 1.55-.57 2.48zm.492-2.173c.336-.625.798-1.1 1.389-1.433l-.32-.567a4.17 4.17 0 0 0-1.642 1.691zm1.387-1.432c.601-.334 1.296-.506 2.09-.506v-.65c-.891 0-1.696.193-2.407.587zm2.09-.506c.764 0 1.432.166 2.014.49l.317-.568q-1.037-.575-2.33-.573zm2.014.49q.87.485 1.357 1.372l.57-.313a4.07 4.07 0 0 0-1.61-1.627zm1.358 1.374c.323.58.49 1.258.49 2.044h.65c0-.88-.187-1.67-.572-2.361zm-.718 1.476c-.012-.74-.281-1.357-.816-1.818l-.425.492c.381.33.58.765.59 1.337zm-.816-1.818c-.524-.453-1.17-.673-1.915-.673v.65c.608 0 1.098.177 1.49.515zm-1.915-.673c-.692 0-1.296.225-1.796.678l.436.482c.375-.339.822-.51 1.36-.51zm-1.793.675c-.506.446-.797 1.049-.889 1.781l.646.081c.075-.6.304-1.049.673-1.374zm-.566 2.147h4.764v-.65h-4.764z" mask="url(#a)"/></svg>