<svg xmlns="http://www.w3.org/2000/svg" viewBox="0 0 16 16" id="svg10493472290"><path d="M 8.601 1.045 C 8.491 0.814 8.257 0.666 8 0.666 C 7.743 0.666 7.509 0.814 7.399 1.045 L 5.637 4.723 L 1.58 5.256 C 1.325 5.289 1.112 5.467 1.033 5.711 C 0.953 5.956 1.022 6.225 1.209 6.401 L 4.175 9.206 L 3.431 13.211 C 3.384 13.464 3.486 13.721 3.693 13.872 C 3.901 14.023 4.177 14.042 4.403 13.92 L 8 11.975 L 11.597 13.92 C 11.823 14.042 12.1 14.024 12.307 13.873 C 12.515 13.721 12.617 13.464 12.57 13.211 L 11.825 9.206 L 14.792 6.401 C 14.979 6.224 15.047 5.956 14.968 5.711 C 14.888 5.466 14.675 5.289 14.42 5.256 L 10.363 4.723 Z" fill="var(--token-a2d601b2-39bf-470a-bb5f-61bc109d99fd, rgba(255, 255, 255, 0.9))" opacity="0.5"/></svg>