<svg xmlns="http://www.w3.org/2000/svg" width="117" height="20" viewBox="0 0 117 20" fill="none" id="svg-916113907_8534">
<g clip-path="url(#svg-916113907_8534_clip0_679_5932)">
<path d="M9.87232 1.60996C10.0431 1.19932 10.6248 1.19932 10.7956 1.60996L12.8617 6.57744C12.9337 6.75056 13.0965 6.86885 13.2834 6.88383L18.6462 7.31376C19.0896 7.3493 19.2693 7.90256 18.9316 8.19189L14.8457 11.6919C14.7033 11.8139 14.6411 12.0053 14.6846 12.1876L15.9329 17.4208C16.0361 17.8534 15.5655 18.1954 15.1859 17.9635L10.5946 15.1592C10.4346 15.0615 10.2334 15.0615 10.0734 15.1592L5.48204 17.9635C5.10249 18.1954 4.63187 17.8534 4.73506 17.4208L5.98337 12.1876C6.02687 12.0053 5.96469 11.8139 5.82229 11.6919L1.7364 8.19189C1.39863 7.90256 1.57839 7.3493 2.02172 7.31376L7.38453 6.88383C7.57142 6.86885 7.73423 6.75056 7.80623 6.57744L9.87232 1.60996Z" fill="#F2F4F7"/>
<g clip-path="url(#svg-916113907_8534_clip1_679_5932)">
<path d="M9.87232 1.60996C10.0431 1.19932 10.6248 1.19932 10.7956 1.60996L12.8617 6.57744C12.9337 6.75056 13.0965 6.86885 13.2834 6.88383L18.6462 7.31376C19.0896 7.3493 19.2693 7.90256 18.9316 8.19189L14.8457 11.6919C14.7033 11.8139 14.6411 12.0053 14.6846 12.1876L15.9329 17.4208C16.0361 17.8534 15.5655 18.1954 15.1859 17.9635L10.5946 15.1592C10.4346 15.0615 10.2334 15.0615 10.0734 15.1592L5.48204 17.9635C5.10249 18.1954 4.63187 17.8534 4.73506 17.4208L5.98337 12.1876C6.02687 12.0053 5.96469 11.8139 5.82229 11.6919L1.7364 8.19189C1.39863 7.90256 1.57839 7.3493 2.02172 7.31376L7.38453 6.88383C7.57142 6.86885 7.73423 6.75056 7.80623 6.57744L9.87232 1.60996Z" fill="#FEC84B"/>
</g>
</g>
<g clip-path="url(#svg-916113907_8534_clip2_679_5932)">
<path d="M33.8723 1.60996C34.0431 1.19932 34.6248 1.19932 34.7956 1.60996L36.8617 6.57744C36.9337 6.75056 37.0965 6.86885 37.2834 6.88383L42.6462 7.31376C43.0896 7.3493 43.2693 7.90256 42.9316 8.19189L38.8457 11.6919C38.7033 11.8139 38.6411 12.0053 38.6846 12.1876L39.9329 17.4208C40.0361 17.8534 39.5655 18.1954 39.1859 17.9635L34.5946 15.1592C34.4346 15.0615 34.2334 15.0615 34.0734 15.1592L29.482 17.9635C29.1025 18.1954 28.6319 17.8534 28.7351 17.4208L29.9834 12.1876C30.0269 12.0053 29.9647 11.8139 29.8223 11.6919L25.7364 8.19189C25.3986 7.90256 25.5784 7.3493 26.0217 7.31376L31.3845 6.88383C31.5714 6.86885 31.7342 6.75056 31.8062 6.57744L33.8723 1.60996Z" fill="#F2F4F7"/>
<g clip-path="url(#svg-916113907_8534_clip3_679_5932)">
<path d="M33.8723 1.60996C34.0431 1.19932 34.6248 1.19932 34.7956 1.60996L36.8617 6.57744C36.9337 6.75056 37.0965 6.86885 37.2834 6.88383L42.6462 7.31376C43.0896 7.3493 43.2693 7.90256 42.9316 8.19189L38.8457 11.6919C38.7033 11.8139 38.6411 12.0053 38.6846 12.1876L39.9329 17.4208C40.0361 17.8534 39.5655 18.1954 39.1859 17.9635L34.5946 15.1592C34.4346 15.0615 34.2334 15.0615 34.0734 15.1592L29.482 17.9635C29.1025 18.1954 28.6319 17.8534 28.7351 17.4208L29.9834 12.1876C30.0269 12.0053 29.9647 11.8139 29.8223 11.6919L25.7364 8.19189C25.3986 7.90256 25.5784 7.3493 26.0217 7.31376L31.3845 6.88383C31.5714 6.86885 31.7342 6.75056 31.8062 6.57744L33.8723 1.60996Z" fill="#FEC84B"/>
</g>
</g>
<g clip-path="url(#svg-916113907_8534_clip4_679_5932)">
<path d="M57.8723 1.60996C58.0431 1.19932 58.6248 1.19932 58.7956 1.60996L60.8617 6.57744C60.9337 6.75056 61.0965 6.86885 61.2834 6.88383L66.6462 7.31376C67.0896 7.3493 67.2693 7.90256 66.9316 8.19189L62.8457 11.6919C62.7033 11.8139 62.6411 12.0053 62.6846 12.1876L63.9329 17.4208C64.0361 17.8534 63.5655 18.1954 63.1859 17.9635L58.5946 15.1592C58.4346 15.0615 58.2334 15.0615 58.0734 15.1592L53.482 17.9635C53.1025 18.1954 52.6319 17.8534 52.7351 17.4208L53.9834 12.1876C54.0269 12.0053 53.9647 11.8139 53.8223 11.6919L49.7364 8.19189C49.3986 7.90256 49.5784 7.3493 50.0217 7.31376L55.3845 6.88383C55.5714 6.86885 55.7342 6.75056 55.8062 6.57744L57.8723 1.60996Z" fill="#F2F4F7"/>
<g clip-path="url(#svg-916113907_8534_clip5_679_5932)">
<path d="M57.8723 1.60996C58.0431 1.19932 58.6248 1.19932 58.7956 1.60996L60.8617 6.57744C60.9337 6.75056 61.0965 6.86885 61.2834 6.88383L66.6462 7.31376C67.0896 7.3493 67.2693 7.90256 66.9316 8.19189L62.8457 11.6919C62.7033 11.8139 62.6411 12.0053 62.6846 12.1876L63.9329 17.4208C64.0361 17.8534 63.5655 18.1954 63.1859 17.9635L58.5946 15.1592C58.4346 15.0615 58.2334 15.0615 58.0734 15.1592L53.482 17.9635C53.1025 18.1954 52.6319 17.8534 52.7351 17.4208L53.9834 12.1876C54.0269 12.0053 53.9647 11.8139 53.8223 11.6919L49.7364 8.19189C49.3986 7.90256 49.5784 7.3493 50.0217 7.31376L55.3845 6.88383C55.5714 6.86885 55.7342 6.75056 55.8062 6.57744L57.8723 1.60996Z" fill="#FEC84B"/>
</g>
</g>
<g clip-path="url(#svg-916113907_8534_clip6_679_5932)">
<path d="M81.8723 1.60996C82.0431 1.19932 82.6248 1.19932 82.7956 1.60996L84.8617 6.57744C84.9337 6.75056 85.0965 6.86885 85.2834 6.88383L90.6462 7.31376C91.0896 7.3493 91.2693 7.90256 90.9316 8.19189L86.8457 11.6919C86.7033 11.8139 86.6411 12.0053 86.6846 12.1876L87.9329 17.4208C88.0361 17.8534 87.5655 18.1954 87.1859 17.9635L82.5946 15.1592C82.4346 15.0615 82.2334 15.0615 82.0734 15.1592L77.482 17.9635C77.1025 18.1954 76.6319 17.8534 76.7351 17.4208L77.9834 12.1876C78.0269 12.0053 77.9647 11.8139 77.8223 11.6919L73.7364 8.19189C73.3986 7.90256 73.5784 7.3493 74.0217 7.31376L79.3845 6.88383C79.5714 6.86885 79.7342 6.75056 79.8062 6.57744L81.8723 1.60996Z" fill="#F2F4F7"/>
<g clip-path="url(#svg-916113907_8534_clip7_679_5932)">
<path d="M81.8723 1.60996C82.0431 1.19932 82.6248 1.19932 82.7956 1.60996L84.8617 6.57744C84.9337 6.75056 85.0965 6.86885 85.2834 6.88383L90.6462 7.31376C91.0896 7.3493 91.2693 7.90256 90.9316 8.19189L86.8457 11.6919C86.7033 11.8139 86.6411 12.0053 86.6846 12.1876L87.9329 17.4208C88.0361 17.8534 87.5655 18.1954 87.1859 17.9635L82.5946 15.1592C82.4346 15.0615 82.2334 15.0615 82.0734 15.1592L77.482 17.9635C77.1025 18.1954 76.6319 17.8534 76.7351 17.4208L77.9834 12.1876C78.0269 12.0053 77.9647 11.8139 77.8223 11.6919L73.7364 8.19189C73.3986 7.90256 73.5784 7.3493 74.0217 7.31376L79.3845 6.88383C79.5714 6.86885 79.7342 6.75056 79.8062 6.57744L81.8723 1.60996Z" fill="#FEC84B"/>
</g>
</g>
<g clip-path="url(#svg-916113907_8534_clip8_679_5932)">
<path d="M105.872 1.60996C106.043 1.19932 106.625 1.19932 106.796 1.60996L108.862 6.57744C108.934 6.75056 109.097 6.86885 109.283 6.88383L114.646 7.31376C115.09 7.3493 115.269 7.90256 114.932 8.19189L110.846 11.6919C110.703 11.8139 110.641 12.0053 110.685 12.1876L111.933 17.4208C112.036 17.8534 111.565 18.1954 111.186 17.9635L106.595 15.1592C106.435 15.0615 106.233 15.0615 106.073 15.1592L101.482 17.9635C101.102 18.1954 100.632 17.8534 100.735 17.4208L101.983 12.1876C102.027 12.0053 101.965 11.8139 101.822 11.6919L97.7364 8.19189C97.3986 7.90256 97.5784 7.3493 98.0217 7.31376L103.385 6.88383C103.571 6.86885 103.734 6.75056 103.806 6.57744L105.872 1.60996Z" fill="#F2F4F7"/>
<g clip-path="url(#svg-916113907_8534_clip9_679_5932)">
<path d="M105.872 1.60996C106.043 1.19932 106.625 1.19932 106.796 1.60996L108.862 6.57744C108.934 6.75056 109.097 6.86885 109.283 6.88383L114.646 7.31376C115.09 7.3493 115.269 7.90256 114.932 8.19189L110.846 11.6919C110.703 11.8139 110.641 12.0053 110.685 12.1876L111.933 17.4208C112.036 17.8534 111.565 18.1954 111.186 17.9635L106.595 15.1592C106.435 15.0615 106.233 15.0615 106.073 15.1592L101.482 17.9635C101.102 18.1954 100.632 17.8534 100.735 17.4208L101.983 12.1876C102.027 12.0053 101.965 11.8139 101.822 11.6919L97.7364 8.19189C97.3986 7.90256 97.5784 7.3493 98.0217 7.31376L103.385 6.88383C103.571 6.86885 103.734 6.75056 103.806 6.57744L105.872 1.60996Z" fill="#FEC84B"/>
</g>
</g>
<defs>
<clipPath id="svg-916113907_8534_clip0_679_5932">
<rect width="20" height="20" fill="white" transform="translate(0.333984)"/>
</clipPath>
<clipPath id="svg-916113907_8534_clip1_679_5932">
<rect width="20" height="20" fill="white" transform="translate(0.333984)"/>
</clipPath>
<clipPath id="svg-916113907_8534_clip2_679_5932">
<rect width="20" height="20" fill="white" transform="translate(24.334)"/>
</clipPath>
<clipPath id="svg-916113907_8534_clip3_679_5932">
<rect width="20" height="20" fill="white" transform="translate(24.334)"/>
</clipPath>
<clipPath id="svg-916113907_8534_clip4_679_5932">
<rect width="20" height="20" fill="white" transform="translate(48.334)"/>
</clipPath>
<clipPath id="svg-916113907_8534_clip5_679_5932">
<rect width="20" height="20" fill="white" transform="translate(48.334)"/>
</clipPath>
<clipPath id="svg-916113907_8534_clip6_679_5932">
<rect width="20" height="20" fill="white" transform="translate(72.334)"/>
</clipPath>
<clipPath id="svg-916113907_8534_clip7_679_5932">
<rect width="20" height="20" fill="white" transform="translate(72.334)"/>
</clipPath>
<clipPath id="svg-916113907_8534_clip8_679_5932">
<rect width="20" height="20" fill="white" transform="translate(96.334)"/>
</clipPath>
<clipPath id="svg-916113907_8534_clip9_679_5932">
<rect width="20" height="20" fill="white" transform="translate(96.334)"/>
</clipPath>
</defs>
</svg>