<svg xmlns="http://www.w3.org/2000/svg" width="91" height="25" fill="none"><path stroke="#FAB800" stroke-linecap="round" stroke-linejoin="round" stroke-width="1.627" d="M11.222 23.745v-9.084c0-.306 0-.46-.032-.605a1.4 1.4 0 0 0-.14-.368c-.073-.13-.175-.244-.378-.472L2.969 4.578c-1.021-1.145-1.532-1.717-1.55-2.204a1.36 1.36 0 0 1 .488-1.098c.375-.31 1.14-.31 2.671-.31h20.037c1.531 0 2.297 0 2.67.31.326.27.507.675.49 1.098-.019.487-.53 1.059-1.55 2.204l-7.703 8.638c-.204.228-.306.342-.378.472a1.4 1.4 0 0 0-.14.368c-.033.146-.033.299-.033.605v7.242c0 .265 0 .398-.042.512m-6.91-14.55h7.157M9.229 4.272h10.736m-7.157 7.182h3.578"/><path fill="#fff" d="M39.368 5.686V7.35h-5.28v3.67h4.117v1.664h-4.117v5.441h-2.04V5.685h7.32ZM50.19 8.263v9.862h-2.04v-1.163a3.4 3.4 0 0 1-1.27.966 4 4 0 0 1-1.648.34q-1.163 0-2.094-.483a3.56 3.56 0 0 1-1.45-1.432q-.518-.949-.519-2.29v-5.8h2.023v5.495q0 1.324.662 2.04.663.699 1.808.698c1.145-.001 1.366-.232 1.808-.698q.68-.716.68-2.04V8.263zm7.668-.161q1.164 0 2.076.483.93.483 1.45 1.432t.52 2.291v5.817H59.88v-5.513q0-1.325-.663-2.022-.662-.716-1.807-.716t-1.826.716q-.662.698-.662 2.022v5.513h-2.04V8.263h2.04v1.128a3.4 3.4 0 0 1 1.27-.949 4.2 4.2 0 0 1 1.665-.34Zm11.624 0q1.162 0 2.076.483.93.483 1.45 1.432t.519 2.291v5.817h-2.023v-5.513q0-1.325-.662-2.022-.662-.716-1.808-.716c-1.146 0-1.372.239-1.826.716q-.662.698-.662 2.022v5.513h-2.04V8.263h2.04v1.128a3.4 3.4 0 0 1 1.271-.949 4.2 4.2 0 0 1 1.665-.34m15.686 4.85q0 .555-.072 1.003h-7.535q.09 1.181.877 1.897.788.716 1.933.716 1.647 0 2.327-1.378h2.201a4.47 4.47 0 0 1-1.628 2.237q-1.163.86-2.9.86-1.414 0-2.541-.627a4.7 4.7 0 0 1-1.754-1.79q-.627-1.163-.627-2.685 0-1.521.609-2.667a4.4 4.4 0 0 1 1.736-1.79q1.127-.626 2.577-.626 1.396 0 2.488.608a4.3 4.3 0 0 1 1.7 1.719q.609 1.092.609 2.523m-2.13-.644q-.018-1.127-.805-1.808-.788-.68-1.951-.68-1.056 0-1.808.68-.752.663-.895 1.808zm6.178-7.428v13.245h-2.04V4.88z"/></svg>