<svg xmlns="http://www.w3.org/2000/svg" viewBox="0 0 141 24" id="svg10006930701"><g transform="translate(0.402 0.401)"><path d="M 0 24 L 0 0 L 24.103 0 L 24.103 24 Z" fill="transparent"/><path d="M 11.495 1.531 C 11.701 1.038 12.402 1.038 12.608 1.531 L 15.098 7.492 C 15.184 7.7 15.38 7.842 15.606 7.86 L 22.069 8.376 C 22.603 8.418 22.819 9.082 22.413 9.429 L 17.488 13.629 C 17.317 13.776 17.242 14.006 17.294 14.224 L 18.799 20.504 C 18.923 21.023 18.356 21.434 17.898 21.155 L 12.365 17.79 C 12.173 17.673 11.93 17.673 11.737 17.79 L 6.204 21.155 C 5.747 21.434 5.18 21.023 5.304 20.504 L 6.808 14.224 C 6.861 14.006 6.786 13.776 6.614 13.629 L 1.69 9.429 C 1.283 9.082 1.5 8.418 2.034 8.376 L 8.497 7.86 C 8.722 7.842 8.918 7.7 9.005 7.492 Z" fill="var(--token-a85af9cb-7834-4006-a277-2dd1295ae376, rgb(255, 255, 255))"/><g><path d="M 0 24 L 0 0 L 24.103 0 L 24.103 24 Z" fill="transparent"/><g><defs><linearGradient id="idss10006930701_6g-1014435766" x1="0.49751243781094523" x2="0.5024875621890548" y1="0" y2="1"><stop offset="0" stop-color="rgb(255, 255, 255)" stop-opacity="1"/><stop offset="1" stop-color="rgb(128, 128, 128)" stop-opacity="1"/></linearGradient></defs><path d="M 11.495 1.531 C 11.701 1.038 12.402 1.038 12.608 1.531 L 15.098 7.492 C 15.184 7.7 15.38 7.842 15.606 7.86 L 22.069 8.376 C 22.603 8.418 22.819 9.082 22.413 9.429 L 17.488 13.629 C 17.317 13.776 17.242 14.006 17.294 14.224 L 18.799 20.504 C 18.923 21.023 18.356 21.434 17.898 21.155 L 12.365 17.79 C 12.173 17.673 11.93 17.673 11.737 17.79 L 6.204 21.155 C 5.747 21.434 5.18 21.023 5.304 20.504 L 6.808 14.224 C 6.861 14.006 6.786 13.776 6.614 13.629 L 1.69 9.429 C 1.283 9.082 1.5 8.418 2.034 8.376 L 8.497 7.86 C 8.722 7.842 8.918 7.7 9.005 7.492 Z" fill="url(#idss10006930701_6g-1014435766)"/></g></g></g><g transform="translate(29.326 1.562)"><path d="M 0 51.638 L 0 27.638 L 24.103 27.638 L 24.103 51.638 Z" fill="transparent"/><path d="M 11.495 0.37 C 11.701 -0.123 12.402 -0.123 12.608 0.37 L 15.097 6.331 C 15.184 6.538 15.38 6.68 15.606 6.698 L 22.069 7.214 C 22.603 7.257 22.819 7.921 22.412 8.268 L 17.488 12.468 C 17.317 12.614 17.242 12.844 17.294 13.063 L 18.799 19.343 C 18.923 19.862 18.356 20.272 17.898 19.994 L 12.365 16.629 C 12.173 16.511 11.93 16.511 11.737 16.629 L 6.204 19.994 C 5.747 20.272 5.18 19.862 5.304 19.343 L 6.808 13.063 C 6.861 12.844 6.786 12.614 6.614 12.468 L 1.69 8.268 C 1.283 7.921 1.5 7.257 2.034 7.214 L 8.497 6.698 C 8.722 6.68 8.918 6.538 9.005 6.331 Z" fill="var(--token-a85af9cb-7834-4006-a277-2dd1295ae376, rgb(255, 255, 255))"/><g><path d="M 0 51.638 L 0 27.638 L 24.103 27.638 L 24.103 51.638 Z" fill="transparent"/><g><defs><linearGradient id="idss10006930701_12g-1014435766" x1="0.49751243781094523" x2="0.5024875621890548" y1="0" y2="1"><stop offset="0" stop-color="rgb(255, 255, 255)" stop-opacity="1"/><stop offset="1" stop-color="rgb(128, 128, 128)" stop-opacity="1"/></linearGradient></defs><path d="M 11.495 0.37 C 11.701 -0.123 12.402 -0.123 12.608 0.37 L 15.097 6.331 C 15.184 6.538 15.38 6.68 15.606 6.698 L 22.069 7.214 C 22.603 7.257 22.819 7.921 22.412 8.268 L 17.488 12.468 C 17.317 12.614 17.242 12.844 17.294 13.063 L 18.799 19.343 C 18.923 19.862 18.356 20.272 17.898 19.994 L 12.365 16.629 C 12.173 16.511 11.93 16.511 11.737 16.629 L 6.204 19.994 C 5.747 20.272 5.18 19.862 5.304 19.343 L 6.808 13.063 C 6.861 12.844 6.786 12.614 6.614 12.468 L 1.69 8.268 C 1.283 7.921 1.5 7.257 2.034 7.214 L 8.497 6.698 C 8.722 6.68 8.918 6.538 9.005 6.331 Z" fill="url(#idss10006930701_12g-1014435766)"/></g></g></g><g transform="translate(58.249 1.562)"><path d="M 0 80.438 L 0 56.438 L 24.103 56.438 L 24.103 80.438 Z" fill="transparent"/><path d="M 11.495 0.37 C 11.701 -0.123 12.402 -0.123 12.608 0.37 L 15.097 6.331 C 15.184 6.538 15.38 6.68 15.606 6.698 L 22.069 7.214 C 22.603 7.257 22.819 7.921 22.412 8.268 L 17.488 12.468 C 17.317 12.614 17.242 12.844 17.294 13.063 L 18.799 19.343 C 18.923 19.862 18.356 20.272 17.898 19.994 L 12.365 16.629 C 12.173 16.511 11.93 16.511 11.737 16.629 L 6.204 19.994 C 5.747 20.272 5.18 19.862 5.304 19.343 L 6.808 13.063 C 6.861 12.844 6.786 12.614 6.614 12.468 L 1.69 8.268 C 1.283 7.921 1.5 7.257 2.034 7.214 L 8.497 6.698 C 8.722 6.68 8.918 6.538 9.005 6.331 Z" fill="var(--token-a85af9cb-7834-4006-a277-2dd1295ae376, rgb(255, 255, 255))"/><g transform="translate(0 0)"><path d="M 0 80.438 L 0 56.438 L 24.103 56.438 L 24.103 80.438 Z" fill="transparent"/><g><defs><linearGradient id="idss10006930701_18g-1014435766" x1="0.49751243781094523" x2="0.5024875621890548" y1="0" y2="1"><stop offset="0" stop-color="rgb(255, 255, 255)" stop-opacity="1"/><stop offset="1" stop-color="rgb(128, 128, 128)" stop-opacity="1"/></linearGradient></defs><path d="M 11.495 0.37 C 11.701 -0.123 12.402 -0.123 12.608 0.37 L 15.097 6.331 C 15.184 6.538 15.38 6.68 15.606 6.698 L 22.069 7.214 C 22.603 7.257 22.819 7.921 22.412 8.268 L 17.488 12.468 C 17.317 12.614 17.242 12.844 17.294 13.063 L 18.799 19.343 C 18.923 19.862 18.356 20.272 17.898 19.994 L 12.365 16.629 C 12.173 16.511 11.93 16.511 11.737 16.629 L 6.204 19.994 C 5.747 20.272 5.18 19.862 5.304 19.343 L 6.808 13.063 C 6.861 12.844 6.786 12.614 6.614 12.468 L 1.69 8.268 C 1.283 7.921 1.5 7.257 2.034 7.214 L 8.497 6.698 C 8.722 6.68 8.918 6.538 9.005 6.331 Z" fill="url(#idss10006930701_18g-1014435766)"/></g></g></g><g transform="translate(87.172 1.562)"><path d="M 0 109.238 L 0 85.238 L 24.103 85.238 L 24.103 109.238 Z" fill="transparent"/><path d="M 11.495 0.37 C 11.701 -0.123 12.402 -0.123 12.608 0.37 L 15.097 6.331 C 15.184 6.538 15.38 6.68 15.606 6.698 L 22.069 7.214 C 22.603 7.257 22.819 7.921 22.412 8.268 L 17.488 12.468 C 17.317 12.614 17.242 12.844 17.294 13.063 L 18.799 19.343 C 18.923 19.862 18.356 20.272 17.898 19.994 L 12.365 16.629 C 12.173 16.511 11.93 16.511 11.737 16.629 L 6.204 19.994 C 5.747 20.272 5.18 19.862 5.304 19.343 L 6.808 13.063 C 6.861 12.844 6.786 12.614 6.614 12.468 L 1.69 8.268 C 1.283 7.921 1.5 7.257 2.034 7.214 L 8.497 6.698 C 8.722 6.68 8.918 6.538 9.005 6.331 Z" fill="var(--token-a85af9cb-7834-4006-a277-2dd1295ae376, rgb(255, 255, 255))"/><g transform="translate(0 0)"><path d="M 0 109.238 L 0 85.238 L 24.103 85.238 L 24.103 109.238 Z" fill="transparent"/><g><defs><linearGradient id="idss10006930701_24g-1014435766" x1="0.49751243781094523" x2="0.5024875621890548" y1="0" y2="1"><stop offset="0" stop-color="rgb(255, 255, 255)" stop-opacity="1"/><stop offset="1" stop-color="rgb(128, 128, 128)" stop-opacity="1"/></linearGradient></defs><path d="M 11.495 0.37 C 11.701 -0.123 12.402 -0.123 12.608 0.37 L 15.097 6.331 C 15.184 6.538 15.38 6.68 15.606 6.698 L 22.069 7.214 C 22.603 7.257 22.819 7.921 22.412 8.268 L 17.488 12.468 C 17.317 12.614 17.242 12.844 17.294 13.063 L 18.799 19.343 C 18.923 19.862 18.356 20.272 17.898 19.994 L 12.365 16.629 C 12.173 16.511 11.93 16.511 11.737 16.629 L 6.204 19.994 C 5.747 20.272 5.18 19.862 5.304 19.343 L 6.808 13.063 C 6.861 12.844 6.786 12.614 6.614 12.468 L 1.69 8.268 C 1.283 7.921 1.5 7.257 2.034 7.214 L 8.497 6.698 C 8.722 6.68 8.918 6.538 9.005 6.331 Z" fill="url(#idss10006930701_24g-1014435766)"/></g></g></g><g transform="translate(116.095 1.562)"><path d="M 0 138.038 L 0 114.038 L 24.103 114.038 L 24.103 138.038 Z" fill="transparent"/><path d="M 11.495 0.37 C 11.701 -0.123 12.402 -0.123 12.608 0.37 L 15.098 6.331 C 15.185 6.538 15.381 6.68 15.605 6.698 L 22.068 7.214 C 22.603 7.257 22.819 7.921 22.413 8.268 L 17.489 12.468 C 17.316 12.614 17.242 12.844 17.295 13.063 L 18.799 19.343 C 18.923 19.862 18.355 20.272 17.899 19.994 L 12.366 16.629 C 12.173 16.511 11.93 16.511 11.737 16.629 L 6.204 19.994 C 5.746 20.272 5.18 19.862 5.304 19.343 L 6.808 13.063 C 6.861 12.844 6.786 12.614 6.614 12.468 L 1.69 8.268 C 1.283 7.921 1.5 7.257 2.034 7.214 L 8.497 6.698 C 8.722 6.68 8.918 6.538 9.005 6.331 Z" fill="var(--token-a85af9cb-7834-4006-a277-2dd1295ae376, rgb(255, 255, 255))"/><g transform="translate(0 0)"><path d="M 0 138.038 L 0 114.038 L 24.103 114.038 L 24.103 138.038 Z" fill="transparent"/><g><defs><linearGradient id="idss10006930701_30g-1014435766" x1="0.49751243781094523" x2="0.5024875621890548" y1="0" y2="1"><stop offset="0" stop-color="rgb(255, 255, 255)" stop-opacity="1"/><stop offset="1" stop-color="rgb(128, 128, 128)" stop-opacity="1"/></linearGradient></defs><path d="M 11.495 0.37 C 11.701 -0.123 12.402 -0.123 12.608 0.37 L 15.098 6.331 C 15.185 6.538 15.381 6.68 15.605 6.698 L 22.068 7.214 C 22.603 7.257 22.819 7.921 22.413 8.268 L 17.489 12.468 C 17.316 12.614 17.242 12.844 17.295 13.063 L 18.799 19.343 C 18.923 19.862 18.355 20.272 17.899 19.994 L 12.366 16.629 C 12.173 16.511 11.93 16.511 11.737 16.629 L 6.204 19.994 C 5.746 20.272 5.18 19.862 5.304 19.343 L 6.808 13.063 C 6.861 12.844 6.786 12.614 6.614 12.468 L 1.69 8.268 C 1.283 7.921 1.5 7.257 2.034 7.214 L 8.497 6.698 C 8.722 6.68 8.918 6.538 9.005 6.331 Z" fill="url(#idss10006930701_30g-1014435766)"/></g></g></g></svg>