<svg xmlns="http://www.w3.org/2000/svg" viewBox="0 0 256 256" focusable="false" color="var(--token-f59ee230-0024-4bc6-b424-2a1b83869511, rgb(255, 255, 255))" style="user-select: none; width: 100%; height: 100%; display: inline-block; fill: var(--token-f59ee230-0024-4bc6-b424-2a1b83869511, rgb(255, 255, 255)); color: var(--token-f59ee230-0024-4bc6-b424-2a1b83869511, rgb(255, 255, 255)); flex-shrink: 0;"><g color="var(--token-f59ee230-0024-4bc6-b424-2a1b83869511, rgb(255, 255, 255))" weight="duotone"><path d="M224,56V168a8,8,0,0,1-8,8H192V88a8,8,0,0,0-8-8H64V56a8,8,0,0,1,8-8H216A8,8,0,0,1,224,56Z" opacity="0.2"/><path d="M216,40H72A16,16,0,0,0,56,56V72H40A16,16,0,0,0,24,88V200a16,16,0,0,0,16,16H184a16,16,0,0,0,16-16V184h16a16,16,0,0,0,16-16V56A16,16,0,0,0,216,40ZM40,88H184v16H40ZM184,200H40V120H184v80Zm32-32H200V88a16,16,0,0,0-16-16H72V56H216Z"/></g></svg>