<svg xmlns="http://www.w3.org/2000/svg" viewBox="0 0 32 32" id="svg9448578236"><g><defs><linearGradient id="idss9448578236_1g-75630365" x1="0.030401216500932873" x2="0.6173996958747668" y1="-0.1" y2="0.65"><stop offset="0" stop-color="rgb(94, 94, 94)" stop-opacity="1"/><stop offset="0.7066666666666667" stop-color="rgb(15, 14, 12)" stop-opacity="1"/><stop offset="1" stop-color="var(--token-24744a5f-0c0c-4061-9961-00562b481b39, rgb(10, 10, 10)) /* {&quot;name&quot;:&quot;main bg color&quot;} */" stop-opacity="1"/></linearGradient></defs><path d="M 0 16 C 0 7.163 7.163 0 16 0 C 24.837 0 32 7.163 32 16 C 32 24.837 24.837 32 16 32 C 7.163 32 0 24.837 0 16 Z" fill="url(#idss9448578236_1g-75630365)"/></g><g transform="translate(7.273 5.82)"><path d="M 0 0 L 17.454 0 L 17.454 17.454 L 0 17.454 Z" fill="transparent"/><g><defs><linearGradient id="idss9448578236_4g62660587" x1="0.49751243781094523" x2="0.5024875621890548" y1="0" y2="1"><stop offset="0" stop-color="rgb(255,255,255)" stop-opacity="1"/><stop offset="1" stop-color="rgb(71, 71, 71)" stop-opacity="1"/></linearGradient></defs><path d="M 14.839 11.888 C 13.264 10.181 11.048 9.21 8.725 9.21 C 6.402 9.21 4.186 10.181 2.611 11.888 C 2.49 12.021 2.423 12.194 2.422 12.373 L 2.422 15.283 C 2.427 15.681 2.752 16.001 3.15 16 L 14.301 16 C 14.703 16 15.028 15.675 15.028 15.273 L 15.028 12.363 C 15.025 12.187 14.957 12.018 14.839 11.888 Z" fill="url(#idss9448578236_4g62660587)"/></g><g><defs><linearGradient id="idss9448578236_5g62660587" x1="0.49751243781094523" x2="0.5024875621890548" y1="0" y2="1"><stop offset="0" stop-color="rgb(255,255,255)" stop-opacity="1"/><stop offset="1" stop-color="rgb(71, 71, 71)" stop-opacity="1"/></linearGradient></defs><path d="M 8.73 8.241 C 10.604 8.241 12.124 6.721 12.124 4.847 C 12.124 2.973 10.604 1.453 8.73 1.453 C 6.856 1.453 5.336 2.973 5.336 4.847 C 5.336 6.721 6.856 8.241 8.73 8.241 Z" fill="url(#idss9448578236_5g62660587)"/></g></g></svg>