<svg xmlns="http://www.w3.org/2000/svg" viewBox="0 0 256 256" focusable="false" color="var(--token-f59ee230-0024-4bc6-b424-2a1b83869511, rgb(255, 255, 255))" style="user-select: none; width: 100%; height: 100%; display: inline-block; fill: var(--token-f59ee230-0024-4bc6-b424-2a1b83869511, rgb(255, 255, 255)); color: var(--token-f59ee230-0024-4bc6-b424-2a1b83869511, rgb(255, 255, 255)); flex-shrink: 0;"><g color="var(--token-f59ee230-0024-4bc6-b424-2a1b83869511, rgb(255, 255, 255))" weight="duotone"><path d="M224,128A96,96,0,0,1,79.93,211.11h0L42.54,223.58a8,8,0,0,1-10.12-10.12l12.47-37.39h0A96,96,0,1,1,224,128Z" opacity="0.2"/><path d="M128,24A104,104,0,0,0,36.18,176.88L24.83,210.93a16,16,0,0,0,20.24,20.24l34.05-11.35A104,104,0,1,0,128,24Zm0,192a87.87,87.87,0,0,1-44.06-11.81,8,8,0,0,0-6.54-.67L40,216,52.47,178.6a8,8,0,0,0-.66-6.54A88,88,0,1,1,128,216Z"/></g></svg>