<svg xmlns="http://www.w3.org/2000/svg" viewBox="0 0 416 78" id="svg12306037454"><path d="M 0.01 76.752 C 31.224 66.071 60.96 52.372 92.683 42.975 C 114.948 36.379 136.342 29.042 159.894 29.042 C 200.237 29.042 231.292 59.899 269.85 68.189 C 276.664 69.654 288.635 71.7 294.672 67.374 C 305.034 59.946 312.429 49.358 322.908 41.955 C 340.377 29.614 358.793 23.042 379.877 29.518 C 385.053 31.108 391.925 30.922 396.164 27.547 C 403.068 22.049 406.982 14.192 411.384 6.886 C 412.721 4.667 414.799 3.53 414.799 0.905" fill="var(--token-59c77d36-1334-459f-ae7c-0cc1454f8332, rgb(105, 105, 105))" stroke-width="3" stroke="var(--token-58bb9704-5a7f-4a91-b112-aa2cc622c9db, rgb(255, 255, 255))" stroke-linecap="round" stroke-miterlimit="10" stroke-dasharray="" fill-opacity="1" opacity="0.35"/><g><defs><linearGradient id="idss12306037454_2g1535381657" x1="0" x2="1" y1="0.3547819100163764" y2="0.6452180899836236"><stop offset="0" stop-color="var(--token-824b0275-9b90-4fdc-a563-7ec722d766de, rgb(201, 201, 201)) /* {&quot;name&quot;:&quot;Primary Color Yellow&quot;} */" stop-opacity="1"/><stop offset="1" stop-color="var(--token-59c77d36-1334-459f-ae7c-0cc1454f8332, rgb(255, 255, 255)) /* {&quot;name&quot;:&quot;Primary color orange&quot;} */" stop-opacity="1"/></linearGradient></defs><path d="M 158.373 28.314 C 158.373 22.515 163.298 17.814 169.373 17.814 C 175.448 17.814 180.373 22.515 180.373 28.314 C 180.373 34.113 175.448 38.814 169.373 38.814 C 163.298 38.814 158.373 34.113 158.373 28.314 Z" fill="url(#idss12306037454_2g1535381657)"/></g><path d="M 163.972 28.489 C 163.972 25.451 166.434 22.989 169.472 22.989 C 172.51 22.989 174.972 25.451 174.972 28.489 C 174.972 31.526 172.51 33.989 169.472 33.989 C 166.434 33.989 163.972 31.526 163.972 28.489 Z" fill="var(--token-24744a5f-0c0c-4061-9961-00562b481b39, rgb(5, 5, 5))"/></svg>