<svg xmlns="http://www.w3.org/2000/svg" viewBox="0 0 256 256" focusable="false" color="var(--token-a85af9cb-7834-4006-a277-2dd1295ae376, rgb(255, 255, 255))" style="user-select: none; width: 100%; height: 100%; display: inline-block; fill: var(--token-a85af9cb-7834-4006-a277-2dd1295ae376, rgb(255, 255, 255)); color: var(--token-a85af9cb-7834-4006-a277-2dd1295ae376, rgb(255, 255, 255)); flex-shrink: 0;"><g color="var(--token-a85af9cb-7834-4006-a277-2dd1295ae376, rgb(255, 255, 255))" weight="duotone"><path d="M208,76h0a28,28,0,0,1-28,28H152V76a28,28,0,0,1,28-28h0A28,28,0,0,1,208,76ZM76,48h0A28,28,0,0,0,48,76h0a28,28,0,0,0,28,28h28V76A28,28,0,0,0,76,48ZM180,152H152v28a28,28,0,0,0,28,28h0a28,28,0,0,0,28-28h0A28,28,0,0,0,180,152ZM48,180h0a28,28,0,0,0,28,28h0a28,28,0,0,0,28-28V152H76A28,28,0,0,0,48,180Z" opacity="0.2"/><path d="M180,144H160V112h20a36,36,0,1,0-36-36V96H112V76a36,36,0,1,0-36,36H96v32H76a36,36,0,1,0,36,36V160h32v20a36,36,0,1,0,36-36ZM160,76a20,20,0,1,1,20,20H160ZM56,76a20,20,0,0,1,40,0V96H76A20,20,0,0,1,56,76ZM96,180a20,20,0,1,1-20-20H96Zm16-68h32v32H112Zm68,88a20,20,0,0,1-20-20V160h20a20,20,0,0,1,0,40Z"/></g></svg>