<svg xmlns="http://www.w3.org/2000/svg" width="102" height="22" fill="none"><path fill="#FAB800" d="M19.753 1.193a.848.848 0 1 0 .441 1.64l2.395-.64-5.39 9.771-4.01-3.385a.855.855 0 0 0-1.356.37l-2.507 7.195-3.485-3.147a.855.855 0 0 0-1.248.11L.177 18.81A.846.846 0 0 0 .332 20a.855.855 0 0 0 1.196-.153l3.852-4.974 3.756 3.392a.855.855 0 0 0 1.379-.35l2.521-7.239 3.856 3.256a.855.855 0 0 0 1.3-.239l5.86-10.624.631 2.345a.853.853 0 0 0 1.647-.44L25.16.63a.853.853 0 0 0-1.043-.6z"/><path fill="#fff" d="M38.46 10.565a4.7 4.7 0 0 0-.586-1.224 3.8 3.8 0 0 0-.864-.932 3.6 3.6 0 0 0-1.15-.593 4.6 4.6 0 0 0-1.404-.203 4.25 4.25 0 0 0-2.343.669q-1.045.668-1.653 1.96-.6 1.285-.6 3.147 0 1.871.608 3.163t1.667 1.96q1.06.669 2.411.669 1.255 0 2.186-.51a3.56 3.56 0 0 0 1.45-1.443q.519-.939.518-2.209l.601.113H34.9v-1.915h6.047v1.75q0 1.938-.826 3.365a5.63 5.63 0 0 1-2.269 2.194q-1.442.773-3.305.773-2.088 0-3.665-.961-1.57-.962-2.449-2.727-.879-1.773-.879-4.207 0-1.84.51-3.304.512-1.466 1.436-2.487a6.3 6.3 0 0 1 2.186-1.57q1.261-.548 2.756-.548 1.247 0 2.321.368a6.3 6.3 0 0 1 1.923 1.044 5.9 5.9 0 0 1 2.156 3.658zm5.252 10.524V9.55h2.171v1.833h.12q.315-.932 1.112-1.465a3.2 3.2 0 0 1 1.818-.54 10 10 0 0 1 .954.052v2.148a4 4 0 0 0-.48-.082 4.6 4.6 0 0 0-.692-.053q-.796 0-1.42.338a2.51 2.51 0 0 0-1.337 2.261v7.046h-2.246Zm12.565.233q-1.621 0-2.832-.744t-1.877-2.08q-.669-1.338-.669-3.125 0-1.796.669-3.14.668-1.346 1.877-2.088 1.21-.744 2.832-.744 1.623 0 2.832.744 1.209.742 1.878 2.088.669 1.344.669 3.14 0 1.787-.669 3.124t-1.878 2.081-2.832.744m.008-1.886q1.05 0 1.743-.555.69-.556 1.021-1.48a5.9 5.9 0 0 0 .338-2.036 5.9 5.9 0 0 0-.338-2.028q-.33-.932-1.021-1.495t-1.743-.563q-1.059 0-1.758.563-.69.564-1.029 1.495a6 6 0 0 0-.33 2.028q0 1.112.33 2.036.337.924 1.03 1.48.697.555 1.757.555m10.028 1.653L62.917 9.55h2.322l2.26 8.473h.113l2.269-8.473h2.32l2.254 8.436h.113l2.246-8.436h2.321l-3.388 11.54h-2.29l-2.344-8.33h-.173l-2.344 8.33h-2.283ZM86.653 9.55v1.803H80.35V9.55h6.302ZM82.04 6.787h2.246V17.7q0 .654.195.984.195.324.504.443.315.113.683.113.27 0 .473-.038l.316-.06.406 1.856q-.195.075-.556.15-.36.082-.902.09a3.95 3.95 0 0 1-1.652-.315 2.84 2.84 0 0 1-1.24-1.022q-.473-.691-.473-1.735zm9.59 7.451v6.85h-2.245V5.706H91.6v5.724h.143q.405-.93 1.24-1.48.832-.548 2.178-.548 1.186 0 2.073.488.894.488 1.382 1.457.496.962.496 2.404v7.339h-2.246v-7.07q0-1.27-.653-1.969-.654-.706-1.818-.706-.797 0-1.427.338a2.44 2.44 0 0 0-.984.992q-.354.645-.354 1.562Z"/></svg>