<svg xmlns="http://www.w3.org/2000/svg" viewBox="0 0 256 256" focusable="false" color="rgb(255, 255, 255)" style="user-select: none; width: 100%; height: 100%; display: inline-block; fill: rgb(255, 255, 255); color: rgb(255, 255, 255); flex-shrink: 0;"><g color="rgb(255, 255, 255)" weight="regular"><path d="M184,72H40A16,16,0,0,0,24,88V200a16,16,0,0,0,16,16H184a16,16,0,0,0,16-16V88A16,16,0,0,0,184,72Zm0,128H40V88H184V200ZM232,56V176a8,8,0,0,1-16,0V56H64a8,8,0,0,1,0-16H216A16,16,0,0,1,232,56Z"/></g></svg>