<svg xmlns="http://www.w3.org/2000/svg" viewBox="0 0 256 256" focusable="false" color="var(--token-f59ee230-0024-4bc6-b424-2a1b83869511, rgb(255, 255, 255))" style="user-select: none; width: 100%; height: 100%; display: inline-block; fill: var(--token-f59ee230-0024-4bc6-b424-2a1b83869511, rgb(255, 255, 255)); color: var(--token-f59ee230-0024-4bc6-b424-2a1b83869511, rgb(255, 255, 255)); flex-shrink: 0;"><g color="var(--token-f59ee230-0024-4bc6-b424-2a1b83869511, rgb(255, 255, 255))" weight="duotone"><path d="M240,128l-48,40H64L16,128,64,88H192Z" opacity="0.2"/><path d="M69.12,94.15,28.5,128l40.62,33.85a8,8,0,1,1-10.24,12.29l-48-40a8,8,0,0,1,0-12.29l48-40a8,8,0,0,1,10.24,12.3Zm176,27.7-48-40a8,8,0,1,0-10.24,12.3L227.5,128l-40.62,33.85a8,8,0,1,0,10.24,12.29l48-40a8,8,0,0,0,0-12.29ZM162.73,32.48a8,8,0,0,0-10.25,4.79l-64,176a8,8,0,0,0,4.79,10.26A8.14,8.14,0,0,0,96,224a8,8,0,0,0,7.52-5.27l64-176A8,8,0,0,0,162.73,32.48Z"/></g></svg>